HIERARCHY
ROOT Hips
{
	OFFSET 0.00000 0.00000 0.00000
	CHANNELS 6 Xposition Yposition Zposition Zrotation Yrotation Xrotation 
	JOINT LHipJoint
	{
		OFFSET 0 0 0
		CHANNELS 3 Zrotation Yrotation Xrotation
		JOINT LeftUpLeg
		{
			OFFSET 1.53794 -1.55850 0.93568
			CHANNELS 3 Zrotation Yrotation Xrotation
			JOINT LeftLeg
			{
				OFFSET 2.28545 -6.27922 0.00000
				CHANNELS 3 Zrotation Yrotation Xrotation
				JOINT LeftFoot
				{
					OFFSET 2.37329 -6.52057 0.00000
					CHANNELS 3 Zrotation Yrotation Xrotation
					JOINT LeftToeBase
					{
						OFFSET 0.14846 -0.40788 2.09160
						CHANNELS 3 Zrotation Yrotation Xrotation
						End Site
						{
							OFFSET 0.00000 -0.00000 1.07536
						}
					}
				}
			}
		}
	}
	JOINT RHipJoint
	{
		OFFSET 0 0 0
		CHANNELS 3 Zrotation Yrotation Xrotation
		JOINT RightUpLeg
		{
			OFFSET -1.78290 -1.55850 0.93568
			CHANNELS 3 Zrotation Yrotation Xrotation
			JOINT RightLeg
			{
				OFFSET -2.24144 -6.15831 0.00000
				CHANNELS 3 Zrotation Yrotation Xrotation
				JOINT RightFoot
				{
					OFFSET -2.35091 -6.45907 0.00000
					CHANNELS 3 Zrotation Yrotation Xrotation
					JOINT RightToeBase
					{
						OFFSET -0.14428 -0.39641 2.07944
						CHANNELS 3 Zrotation Yrotation Xrotation
						End Site
						{
							OFFSET -0.00000 -0.00000 1.06864
						}
					}
				}
			}
		}
	}
	JOINT LowerBack
	{
		OFFSET 0 0 0
		CHANNELS 3 Zrotation Yrotation Xrotation
		JOINT Spine
		{
			OFFSET -0.08841 2.11430 -0.15818
			CHANNELS 3 Zrotation Yrotation Xrotation
			JOINT Spine1
			{
				OFFSET -0.00033 2.12605 -0.08097
				CHANNELS 3 Zrotation Yrotation Xrotation
				JOINT Neck
				{
					OFFSET 0 0 0
					CHANNELS 3 Zrotation Yrotation Xrotation
					JOINT Neck1
					{
						OFFSET 0.04431 1.59447 0.43193
						CHANNELS 3 Zrotation Yrotation Xrotation
						JOINT Head
						{
							OFFSET 0.00455 1.62017 -0.58852
							CHANNELS 3 Zrotation Yrotation Xrotation
							End Site
							{
								OFFSET -0.00920 1.72955 -0.25850
							}
						}
					}
				}
				JOINT LeftShoulder
				{
					OFFSET 0 0 0
					CHANNELS 3 Zrotation Yrotation Xrotation
					JOINT LeftArm
					{
						OFFSET 2.86490 1.49927 -0.33774
						CHANNELS 3 Zrotation Yrotation Xrotation
						JOINT LeftForeArm
						{
							OFFSET 4.87408 -0.00000 0.00000
							CHANNELS 3 Zrotation Yrotation Xrotation
							JOINT LeftHand
							{
								OFFSET 2.76729 -0.00000 0.00000
								CHANNELS 3 Zrotation Yrotation Xrotation
								JOINT LeftFingerBase
								{
									OFFSET 0 0 0
									CHANNELS 3 Zrotation Yrotation Xrotation
									JOINT LeftHandIndex1
									{
										OFFSET 0.98922 -0.00000 0.00000
										CHANNELS 3 Zrotation Yrotation Xrotation
										End Site
										{
											OFFSET 0.79753 -0.00000 0.00000
										}
									}
								}
								JOINT LThumb
								{
									OFFSET 0 0 0
									CHANNELS 3 Zrotation Yrotation Xrotation
									End Site
									{
										OFFSET 0.80972 -0.00000 0.80972
									}
								}
							}
						}
					}
				}
				JOINT RightShoulder
				{
					OFFSET 0 0 0
					CHANNELS 3 Zrotation Yrotation Xrotation
					JOINT RightArm
					{
						OFFSET -2.94414 1.45463 -0.25291
						CHANNELS 3 Zrotation Yrotation Xrotation
						JOINT RightForeArm
						{
							OFFSET -4.71404 -0.00000 0.00000
							CHANNELS 3 Zrotation Yrotation Xrotation
							JOINT RightHand
							{
								OFFSET -2.83468 -0.00000 0.00000
								CHANNELS 3 Zrotation Yrotation Xrotation
								JOINT RightFingerBase
								{
									OFFSET 0 0 0
									CHANNELS 3 Zrotation Yrotation Xrotation
									JOINT RightHandIndex1
									{
										OFFSET -0.86820 -0.00000 0.00000
										CHANNELS 3 Zrotation Yrotation Xrotation
										End Site
										{
											OFFSET -0.69996 -0.00000 0.00000
										}
									}
								}
								JOINT RThumb
								{
									OFFSET 0 0 0
									CHANNELS 3 Zrotation Yrotation Xrotation
									End Site
									{
										OFFSET -0.71065 -0.00000 0.71065
									}
								}
							}
						}
					}
				}
			}
		}
	}
}
MOTION
Frames: 5
Frame Time: .0083333
0.9476 15.8264 8.1208 176.2540 0.3367 -169.0000 0.0000 0.0000 0.0000 -28.5476 -8.8692 -11.9247 1.9862 8.8372 25.2873 -0.5101 15.8554 -16.2382 0.1833 2.7575 7.6044 0.0000 0.0000 0.0000 16.6105 10.7555 -19.5964 -5.5953 -14.0243 43.3349 -0.3033 -12.7849 -21.5539 -1.7108 8.2358 -23.4325 -7.8384 -0.3552 -5.5612 0.1806 0.0098 0.2684 4.5943 -0.1489 3.4061 -0.4285 0.6310 -34.3237 2.4265 -2.5540 39.9524 0.3466 -1.3610 23.2115 -0.0000 -0.0000 0.0000 -91.4231 -3.5205 17.6602 11.3940 -18.8896 -1.9015 -0.0000 -0.0000 49.2420 -3.6754 5.3512 -0.3432 -7.1250 0.0000 -0.0000 -24.6162 34.3766 6.9709 -0.0000 -0.0000 0.0000 88.7695 -2.8442 9.2430 -15.2118 24.4403 -3.3131 0.0000 0.0000 32.9316 -2.6051 -5.9293 0.2693 7.1250 -0.0000 -0.0000 19.8744 -35.2876 4.9932
0.9356 15.8213 8.0978 176.0460 0.3826 -169.1070 0.0000 0.0000 0.0000 -28.8575 -8.5797 -11.6172 1.9339 8.7271 24.9453 -0.4901 15.6908 -16.2165 0.1804 2.7359 7.5445 0.0000 0.0000 0.0000 16.2015 10.6323 -20.7493 -6.0614 -14.4875 45.2275 -0.2250 -13.1284 -21.1743 -1.8796 8.6106 -24.5845 -8.0483 -0.4463 -5.3721 0.1308 -0.0470 0.3500 4.6568 -0.1557 3.3973 -0.4019 0.6586 -34.3061 2.4617 -2.5411 39.9196 0.3654 -1.3458 23.1781 -0.0000 0.0000 0.0000 -91.3763 -3.5038 17.6393 11.3783 -18.8658 -1.8964 -0.0000 -0.0000 49.2396 -3.7317 5.3426 -0.3480 -7.1250 0.0000 -0.0000 -24.6569 34.3653 6.9920 -0.0000 0.0000 0.0000 88.7563 -2.7774 9.1892 -15.2286 24.4637 -3.3200 0.0000 0.0000 32.8654 -2.6260 -6.0157 0.2754 7.1250 -0.0000 -0.0000 19.8789 -35.3701 4.9520
0.9245 15.8172 8.0726 175.8650 0.3681 -169.2250 0.0000 0.0000 0.0000 -29.1288 -8.3110 -11.2725 1.8805 8.6126 24.5908 -0.4694 15.5149 -16.1861 0.1768 2.7084 7.4678 0.0000 0.0000 0.0000 15.8317 10.4954 -21.8692 -6.5136 -14.9083 47.0099 -0.1673 -13.3630 -20.8681 -2.0144 8.8960 -25.4704 -8.2362 -0.4755 -5.1675 0.0934 -0.1526 0.4327 4.7129 -0.2406 3.3805 1.1529 -1.5437 -34.3137 1.2034 -1.3444 40.0453 0.3859 0.6766 23.1862 -0.0000 -0.0000 0.0000 -91.3251 -3.4879 17.6152 11.3491 -18.8214 -1.8870 -0.0000 -0.0000 49.2723 -3.7661 5.3507 -0.3517 -7.1250 0.0000 -0.0000 -24.6854 34.3706 6.9980 -0.0000 -0.0000 0.0000 88.7486 -2.7108 9.1447 -15.2436 24.4843 -3.3262 0.0000 0.0000 32.7316 -2.6373 -6.1670 0.2835 7.1250 -0.0000 -0.0000 19.9072 -35.5131 4.8861
0.9133 15.8142 8.0450 175.7140 0.3081 -169.3360 0.0000 0.0000 0.0000 -29.3615 -8.0700 -10.9096 1.8271 8.4963 24.2319 -0.4487 15.3392 -16.1589 0.1729 2.6782 7.3841 0.0000 0.0000 0.0000 15.4955 10.3443 -22.9704 -6.9383 -15.2797 48.6405 -0.1321 -13.4750 -20.6393 -2.1097 9.0909 -26.0799 -8.3837 -0.5604 -4.9593 0.0721 -0.2736 0.4968 4.7639 -0.3042 3.3485 1.1715 -1.5088 -34.3098 1.2276 -1.3072 40.0680 0.4077 0.6973 23.2047 0.0000 0.0000 0.0000 -91.2856 -3.4513 17.5698 11.3044 -18.7533 -1.8726 -0.0000 -0.0000 49.3737 -3.7968 5.3765 -0.3563 -7.1250 0.0000 -0.0000 -24.7161 34.3922 6.9940 0.0000 0.0000 0.0000 88.7341 -2.6916 9.1271 -15.2706 24.5217 -3.3374 0.0000 0.0000 32.5117 -2.6350 -6.3854 0.2933 7.1250 -0.0000 -0.0000 19.9633 -35.7185 4.7953
0.9023 15.8125 8.0146 175.6050 0.2156 -169.4360 0.0000 0.0000 0.0000 -29.5447 -7.8636 -10.5304 1.7739 8.3784 23.8694 -0.4303 15.1813 -16.1357 0.1690 2.6481 7.3004 0.0000 0.0000 0.0000 15.2056 10.2009 -24.0420 -7.3230 -15.5980 50.0857 -0.1220 -13.4632 -20.5150 -2.1693 9.2101 -26.4548 -8.4789 -0.6493 -4.7637 0.0609 -0.4028 0.5523 4.7959 -0.3707 3.3161 1.2042 -1.4718 -34.3160 1.2333 -1.2705 40.0837 0.4159 0.7164 23.2200 0.0000 -0.0000 0.0000 -91.2456 -3.4247 17.5150 11.2364 -18.6496 -1.8508 -0.0000 -0.0000 49.5144 -3.8017 5.4266 -0.3601 -7.1250 0.0000 -0.0000 -24.7340 34.4374 6.9699 0.0000 -0.0000 0.0000 88.7256 -2.7015 9.1096 -15.3022 24.5654 -3.3506 0.0000 0.0000 32.2482 -2.6267 -6.6324 0.3036 7.1250 -0.0000 -0.0000 20.0320 -35.9502 4.6933
